<svg xmlns="http://www.w3.org/2000/svg" width="1600" height="1000" viewBox="0 0 1600 1000" role="img" aria-label="Dim abandoned AI laboratory">
  <defs>
    <linearGradient id="bg" x1="0" x2="1" y1="0" y2="1">
      <stop offset="0" stop-color="#1c241c"/>
      <stop offset="0.48" stop-color="#0e130f"/>
      <stop offset="1" stop-color="#101816"/>
    </linearGradient>
    <radialGradient id="glow" cx="62%" cy="42%" r="42%">
      <stop offset="0" stop-color="#d7ff68" stop-opacity="0.42"/>
      <stop offset="0.38" stop-color="#61d3c5" stop-opacity="0.16"/>
      <stop offset="1" stop-color="#0d100d" stop-opacity="0"/>
    </radialGradient>
  </defs>
  <rect width="1600" height="1000" fill="url(#bg)"/>
  <rect width="1600" height="1000" fill="url(#glow)"/>
  <path d="M80 780h1440" stroke="#d8d3c6" stroke-opacity=".12" stroke-width="4"/>
  <path d="M210 220h1180M260 320h1080M310 420h980" stroke="#f5f1e8" stroke-opacity=".06" stroke-width="3"/>
  <rect x="190" y="235" width="260" height="480" rx="18" fill="#0a0d0b" stroke="#f5f1e8" stroke-opacity=".14" stroke-width="3"/>
  <rect x="500" y="160" width="600" height="600" rx="26" fill="#141b17" stroke="#d7ff68" stroke-opacity=".18" stroke-width="3"/>
  <rect x="560" y="230" width="480" height="330" rx="18" fill="#050706" stroke="#61d3c5" stroke-opacity=".28" stroke-width="2"/>
  <path d="M620 510c130-150 244-150 360 0" fill="none" stroke="#d7ff68" stroke-opacity=".5" stroke-width="8"/>
  <circle cx="800" cy="378" r="92" fill="#d7ff68" fill-opacity=".09" stroke="#d7ff68" stroke-opacity=".34" stroke-width="7"/>
  <path d="M800 286v184M708 378h184" stroke="#61d3c5" stroke-opacity=".35" stroke-width="5"/>
  <rect x="1160" y="275" width="250" height="440" rx="16" fill="#0a0d0b" stroke="#f5f1e8" stroke-opacity=".13" stroke-width="3"/>
  <g fill="#d7ff68" fill-opacity=".78">
    <circle cx="1225" cy="350" r="8"/>
    <circle cx="1270" cy="350" r="8"/>
    <circle cx="1315" cy="350" r="8"/>
    <rect x="1215" y="405" width="130" height="8" rx="4"/>
    <rect x="1215" y="440" width="90" height="8" rx="4"/>
  </g>
  <path d="M0 880c230-70 434-84 612-42s386 50 624 0c138-28 260-27 364 4v158H0z" fill="#070907" fill-opacity=".75"/>
</svg>
