<svg xmlns="http://www.w3.org/2000/svg" viewBox="0 0 1200 720" role="img" aria-label="Purple emergency exit corridor">
  <defs>
    <linearGradient id="bg" x1="0" x2="1" y1="0" y2="1">
      <stop offset="0" stop-color="#2e174f"/>
      <stop offset="0.55" stop-color="#0d1020"/>
      <stop offset="1" stop-color="#02050a"/>
    </linearGradient>
    <radialGradient id="doorGlow" cx="50%" cy="43%" r="34%">
      <stop offset="0" stop-color="#c084fc" stop-opacity="0.42"/>
      <stop offset="1" stop-color="#c084fc" stop-opacity="0"/>
    </radialGradient>
  </defs>
  <rect width="1200" height="720" fill="url(#bg)"/>
  <rect width="1200" height="720" fill="url(#doorGlow)"/>
  <g stroke="#e9d5ff" stroke-opacity="0.18" stroke-width="3">
    <path d="M190 690 500 150M1010 690 700 150"/>
    <path d="M0 535h1200M0 430h1200M0 320h1200"/>
  </g>
  <g fill="#0b0b18" stroke="#c084fc" stroke-opacity="0.55" stroke-width="4">
    <path d="M455 155h290v470H455z"/>
    <path d="M495 205h210v350H495z"/>
  </g>
  <g fill="#f0abfc">
    <rect x="540" y="250" width="120" height="16" rx="8" opacity="0.7"/>
    <rect x="550" y="300" width="100" height="12" rx="6" opacity="0.5"/>
    <circle cx="690" cy="382" r="10" opacity="0.8"/>
  </g>
  <path d="M0 660c210-55 390-65 600-18 205 46 390 32 600-34v112H0z" fill="#02050a" opacity="0.78"/>
</svg>
