<svg xmlns="http://www.w3.org/2000/svg" viewBox="0 0 1200 720" role="img" aria-label="Teal server chamber">
  <defs>
    <linearGradient id="bg" x1="0" x2="1" y1="0" y2="1">
      <stop offset="0" stop-color="#082f35"/>
      <stop offset="0.58" stop-color="#07111a"/>
      <stop offset="1" stop-color="#02050a"/>
    </linearGradient>
    <radialGradient id="core" cx="58%" cy="42%" r="42%">
      <stop offset="0" stop-color="#67e8f9" stop-opacity="0.32"/>
      <stop offset="1" stop-color="#67e8f9" stop-opacity="0"/>
    </radialGradient>
  </defs>
  <rect width="1200" height="720" fill="url(#bg)"/>
  <rect width="1200" height="720" fill="url(#core)"/>
  <g fill="#06161c" stroke="#2dd4bf" stroke-opacity="0.4" stroke-width="3">
    <rect x="90" y="110" width="140" height="500" rx="10"/>
    <rect x="280" y="80" width="160" height="540" rx="10"/>
    <rect x="495" y="120" width="170" height="500" rx="10"/>
    <rect x="725" y="75" width="160" height="545" rx="10"/>
    <rect x="940" y="130" width="150" height="485" rx="10"/>
  </g>
  <g fill="#5eead4" opacity="0.85">
    <circle cx="130" cy="165" r="6"/>
    <circle cx="170" cy="165" r="6"/>
    <circle cx="325" cy="145" r="6"/>
    <circle cx="365" cy="145" r="6"/>
    <circle cx="545" cy="185" r="6"/>
    <circle cx="585" cy="185" r="6"/>
    <circle cx="770" cy="145" r="6"/>
    <circle cx="810" cy="145" r="6"/>
    <circle cx="985" cy="190" r="6"/>
    <circle cx="1025" cy="190" r="6"/>
  </g>
  <g stroke="#67e8f9" stroke-width="2" opacity="0.22">
    <path d="M160 610C310 430 450 480 590 350S835 250 1040 165"/>
    <path d="M135 220c180 110 360 90 535 250 120 110 230 130 385 80"/>
  </g>
  <rect y="620" width="1200" height="100" fill="#02050a" opacity="0.72"/>
</svg>
